HIERARCHY
ROOT Hips
{
 OFFSET 0.000000 0.000000 0.000000
 CHANNELS 6 Xposition Yposition Zposition Yrotation Xrotation Zrotation
 JOINT Chest
 {
  OFFSET 0.000000 9.585900 0.002600
  CHANNELS 3 Yrotation Xrotation Zrotation
  JOINT Chest2
  {
   OFFSET 0.000000 9.601200 -0.005300
   CHANNELS 3 Yrotation Xrotation Zrotation
   JOINT Chest3
   {
    OFFSET 0.000000 9.561800 0.000000
    CHANNELS 3 Yrotation Xrotation Zrotation
    JOINT Chest4
    {
     OFFSET 0.000000 9.552100 0.000000
     CHANNELS 3 Yrotation Xrotation Zrotation
     JOINT Neck
     {
      OFFSET 0.000000 14.453000 0.000000
      CHANNELS 3 Yrotation Xrotation Zrotation
      JOINT Head
      {
       OFFSET 0.000000 8.936500 -0.011300
       CHANNELS 3 Yrotation Xrotation Zrotation
       End Site
       {
        OFFSET 0.000000 17.073600 -0.006000
       }
      }
     }
     JOINT RightCollar
     {
      OFFSET -2.921100 9.558500 0.000000
      CHANNELS 3 Yrotation Xrotation Zrotation
      JOINT RightShoulder
      {
       OFFSET -13.519700 0.000000 0.000000
       CHANNELS 3 Yrotation Xrotation Zrotation
       JOINT RightElbow
       {
        OFFSET 0.000000 -29.696600 0.000000
        CHANNELS 3 Yrotation Xrotation Zrotation
        JOINT RightWrist
        {
         OFFSET 0.000000 -24.004700 0.000000
         CHANNELS 3 Yrotation Xrotation Zrotation
         End Site
         {
          OFFSET 0.000000 -17.728500 0.000000
         }
        }
       }
      }
     }
     JOINT LeftCollar
     {
      OFFSET 2.921100 9.558500 0.000000
      CHANNELS 3 Yrotation Xrotation Zrotation
      JOINT LeftShoulder
      {
       OFFSET 13.519700 0.000000 0.000000
       CHANNELS 3 Yrotation Xrotation Zrotation
       JOINT LeftElbow
       {
        OFFSET 0.000000 -29.696600 0.000000
        CHANNELS 3 Yrotation Xrotation Zrotation
        JOINT LeftWrist
        {
         OFFSET 0.000000 -24.004700 0.000000
         CHANNELS 3 Yrotation Xrotation Zrotation
         End Site
         {
          OFFSET 0.000000 -17.728500 0.000000
         }
        }
       }
      }
     }
    }
   }
  }
 }
 JOINT RightHip
 {
  OFFSET -7.771700 -0.012900 -0.001300
  CHANNELS 3 Yrotation Xrotation Zrotation
  JOINT RightKnee
  {
   OFFSET 0.000000 -40.869800 0.001200
   CHANNELS 3 Yrotation Xrotation Zrotation
   JOINT RightAnkle
   {
    OFFSET 0.000000 -39.717900 0.002100
    CHANNELS 3 Yrotation Xrotation Zrotation
    JOINT RightToe
    {
     OFFSET 0.000000 -4.965400 11.033500
     CHANNELS 3 Yrotation Xrotation Zrotation
     End Site
     {
      OFFSET 0.000000 -1.423100 5.872300
     }
    }
   }
  }
 }
 JOINT LeftHip
 {
  OFFSET 7.771700 -0.012900 -0.001300
  CHANNELS 3 Yrotation Xrotation Zrotation
  JOINT LeftKnee
  {
   OFFSET 0.000000 -40.869800 0.001200
   CHANNELS 3 Yrotation Xrotation Zrotation
   JOINT LeftAnkle
   {
    OFFSET 0.000000 -39.717900 0.002100
    CHANNELS 3 Yrotation Xrotation Zrotation
    JOINT LeftToe
    {
     OFFSET 0.000000 -4.965400 11.033500
     CHANNELS 3 Yrotation Xrotation Zrotation
     End Site
     {
      OFFSET 0.000000 -1.423100 5.872300
     }
    }
   }
  }
 }
}
MOTION
Frames: 8
Frame Time: 0.008333
-43.062506 46.516531 13.783084 178.827645 -30.821169 -3.136521 -0.273306 16.920026 1.117516 -0.055331 1.772358 0.146553 -0.087381 2.942267 0.234871 -0.323329 14.921118 1.166367 -0.539684 18.190923 -1.484080 -0.515283 -1.999458 -2.546027 0.025828 1.336618 -2.187531 5.358413 -6.792178 -16.140734 -49.089420 -54.814070 100.512479 -0.653015 6.739620 -18.082203 0.130181 0.040912 1.912755 -3.997612 -1.888517 15.119702 63.827810 -62.997635 -105.987073 -0.771355 14.319502 8.945831 -1.098243 -56.470072 -8.942736 -151.322725 79.071026 -142.848723 -7.702957 -12.202112 -4.930852 -0.003681 -0.238291 0.021352 0.068343 -58.240211 9.110016 -109.270863 82.223212 -113.916639 4.500515 -5.814584 6.354319 0.098442 0.194481 0.057768
-43.064506 46.517588 13.785058 178.836008 -30.816800 -3.138779 -0.282310 16.924121 1.121400 -0.058373 1.774054 0.142720 -0.088165 2.945131 0.235757 -0.326771 14.927398 1.169848 -0.536225 18.176089 -1.490523 -0.523334 -1.995083 -2.543636 0.031213 1.322766 -2.190749 5.345723 -6.776890 -16.102677 -49.094736 -54.842304 100.514749 -0.668202 6.742140 -18.086600 0.132529 0.026365 1.914025 -3.991703 -1.891321 15.116051 63.862741 -63.017377 -106.021996 -0.750441 14.324017 8.947862 -1.103096 -56.470403 -8.955605 -151.336681 79.079814 -142.857054 -7.692408 -12.196406 -4.944611 -0.004205 -0.236560 0.021255 0.079658 -58.243720 9.097355 -109.221363 82.228113 -113.865058 4.496622 -5.804366 6.361289 0.095350 0.192562 0.055397
-43.065617 46.519026 13.786196 178.836889 -30.817358 -3.141267 -0.285787 16.931819 1.124517 -0.060228 1.777470 0.141100 -0.087691 2.944419 0.235680 -0.329482 14.935968 1.174899 -0.539935 18.174176 -1.491861 -0.518034 -2.008841 -2.551118 0.036668 1.307183 -2.195326 5.348395 -6.771406 -16.087176 -49.094884 -54.830202 100.508905 -0.681420 6.741203 -18.094416 0.132627 0.008316 1.921382 -3.984555 -1.889153 15.107302 63.890780 -63.032540 -106.052472 -0.756087 14.332848 8.951583 -1.108434 -56.468140 -8.959742 -151.362663 79.087261 -142.878241 -7.687629 -12.187187 -4.952097 -0.001614 -0.235222 0.013001 0.082892 -58.242910 9.094725 -109.209970 82.230753 -113.849817 4.501394 -5.800415 6.359085 0.096755 0.192082 0.054424
-43.066311 46.520489 13.786909 178.832812 -30.819770 -3.141954 -0.287520 16.943652 1.123025 -0.056972 1.779120 0.145099 -0.086521 2.936605 0.233999 -0.330054 14.949976 1.182154 -0.549102 18.172578 -1.494745 -0.523209 -2.013749 -2.552603 0.036337 1.293337 -2.201226 5.357732 -6.767978 -16.070753 -49.086962 -54.809897 100.499435 -0.692374 6.740266 -18.113336 0.122422 -0.004840 1.927008 -3.976375 -1.886274 15.106622 63.930012 -63.032259 -106.081868 -0.785212 14.356727 8.940116 -1.109012 -56.465294 -8.958742 -151.382340 79.093009 -142.895677 -7.684590 -12.178070 -4.961084 -0.004728 -0.240637 0.016956 0.088659 -58.239722 9.092771 -109.219643 82.231282 -113.856480 4.510347 -5.805918 6.357633 0.094230 0.195497 0.052822
-43.067746 46.521498 13.787797 178.834491 -30.819055 -3.139030 -0.293839 16.952554 1.120335 -0.052698 1.780115 0.144715 -0.091051 2.938837 0.236106 -0.324153 14.953434 1.185250 -0.560045 18.171846 -1.493482 -0.532646 -2.016548 -2.554295 0.035565 1.279715 -2.203145 5.367053 -6.764172 -16.057094 -49.065885 -54.795352 100.473370 -0.707177 6.731704 -18.134590 0.108472 -0.020105 1.931506 -3.972372 -1.884106 15.104144 63.934892 -63.053749 -106.083670 -0.769955 14.352405 8.947266 -1.105097 -56.464327 -8.969907 -151.401012 79.098446 -142.913353 -7.681533 -12.175335 -4.963658 -0.021184 -0.237544 0.013080 0.098963 -58.239782 9.079364 -109.233702 82.239615 -113.864851 4.495839 -5.805289 6.354682 0.105199 0.197222 0.051522
-43.066697 46.521989 13.789370 178.833600 -30.813192 -3.147342 -0.285853 16.963579 1.132277 -0.054310 1.771254 0.144139 -0.091268 2.944404 0.238115 -0.320871 14.953000 1.188782 -0.567298 18.174389 -1.491628 -0.545786 -2.018666 -2.551186 0.025132 1.271788 -2.204560 5.381792 -6.765697 -16.047080 -49.051176 -54.772434 100.453993 -0.710367 6.726849 -18.153107 0.094162 -0.030991 1.943516 -3.984302 -1.881740 15.098675 63.953677 -63.055221 -106.083019 -0.764317 14.347509 8.950161 -1.118222 -56.466394 -8.956104 -151.449102 79.115460 -142.955228 -7.690923 -12.172005 -4.974126 -0.003697 -0.231428 0.009502 0.083051 -58.245277 9.100570 -109.274142 82.259306 -113.899880 4.459550 -5.803053 6.347241 0.105102 0.199923 0.052204
-43.064838 46.522543 13.790484 178.829389 -30.809591 -3.156283 -0.275847 16.965740 1.144652 -0.053898 1.772109 0.144625 -0.092445 2.946573 0.240065 -0.315418 14.955016 1.191658 -0.574858 18.177474 -1.487514 -0.554632 -2.018050 -2.546605 0.015736 1.271005 -2.203838 5.387188 -6.774550 -16.046986 -49.038996 -54.753258 100.444041 -0.710491 6.722149 -18.164870 0.083451 -0.042794 1.946328 -3.984818 -1.879191 15.096356 63.955557 -63.057230 -106.081854 -0.780452 14.360326 8.949025 -1.128002 -56.466520 -8.940321 -151.473138 79.128231 -142.975327 -7.682559 -12.164746 -4.989035 -0.018493 -0.231737 0.017972 0.060073 -58.251457 9.128818 -109.329077 82.265803 -113.953770 4.445983 -5.801839 6.344103 0.095249 0.197737 0.047848
-43.063494 46.522964 13.791329 178.821757 -30.806423 -3.157982 -0.266005 16.968208 1.151821 -0.053496 1.772990 0.145031 -0.087538 2.951494 0.239869 -0.315281 14.954414 1.196068 -0.577940 18.177524 -1.485376 -0.568072 -2.013637 -2.537098 0.000688 1.268150 -2.199146 5.413423 -6.774443 -16.045954 -49.045906 -54.752079 100.437765 -0.708928 6.721788 -18.174735 0.070166 -0.054976 1.948166 -3.980322 -1.874395 15.094652 63.958946 -63.058864 -106.084687 -0.784944 14.368965 8.955417 -1.131827 -56.469049 -8.928025 -151.497416 79.139623 -142.999221 -7.687132 -12.156861 -4.996561 -0.006870 -0.231533 0.017610 0.049639 -58.254263 9.147484 -109.341419 82.266429 -113.967771 4.442320 -5.805130 6.343269 0.100394 0.199215 0.045790
